<?xml version="1.0" encoding="iso-8859-1"?>
<!-- Generator: Adobe Illustrator 16.0.0, SVG Export Plug-In . SVG Version: 6.00 Build 0)  -->
<!DOCTYPE svg PUBLIC "-//W3C//DTD SVG 1.1//EN" "http://www.w3.org/Graphics/SVG/1.1/DTD/svg11.dtd">
<svg version="1.1" id="Capa_1" xmlns="http://www.w3.org/2000/svg" xmlns:xlink="http://www.w3.org/1999/xlink" x="0px" y="0px"
	 width="530.958px" height="530.958px" viewBox="0 0 530.958 530.958" style="enable-background:new 0 0 530.958 530.958;"
	 xml:space="preserve">
<g>
	<g>
		<path d="M337.919,43.337C337.919,19.383,318.421,0,294.458,0c-23.936,0-43.424,19.383-43.424,43.337
			c0,24.002,19.459,43.452,43.424,43.452C318.421,86.789,337.919,67.339,337.919,43.337z"/>
		<path d="M65.378,469.309c0,15.262,12.412,27.712,27.808,27.712c11.044,0,20.521-6.436,25.015-15.635l92.871-159.627l44.963,44.667
			l-41.281,72.541c-1.53,2.907-2.362,6.158-2.792,9.572c-18.886-3.969-52.307-9.143-56.687,3.012
			c-5.221,14.535,7.87,33.479,45.546,37.122c2.247,0.21,4.036,0.373,3.988,0.439c-0.048,0.048-0.928,1.73-1.96,3.758l-1.3,2.544
			c-1.033,2.018-3.644,4.179-5.565,5.374c-4.609,2.888-7.698,7.956-7.698,13.799c0,9.036,7.334,16.371,16.38,16.371
			s16.371-7.335,16.371-16.371c0-1.138-0.125-2.247-0.344-3.328c-0.383-1.798,0.038-4.676,1.338-6.54
			c2.4-3.442,6.111-8.778,8.511-12.222c1.291-1.854,4.169-3.365,6.426-3.356c13.76,0.029,57.49,0.173,57.49,0.173l45.316-0.144
			c2.256-0.01,5.145,1.491,6.436,3.356l8.49,12.192c1.291,1.864,1.713,4.743,1.34,6.55c-0.221,1.062-0.344,2.181-0.344,3.318
			c0,9.037,7.334,16.371,16.371,16.371c9.035,0,16.371-7.334,16.371-16.371c0-5.843-3.08-10.92-7.689-13.799
			c-1.922-1.195-4.541-3.356-5.574-5.374l-1.301-2.544c-1.033-2.018-0.029-3.604,2.238-3.634
			c46.836-0.439,63.273-21.716,57.537-37.686c-5.211-14.468-51.646-4.389-65.627-0.994c-2.191,0.545-5.795,0.994-8.062,0.994
			h-65.502h-23.256l48.1-85.536c0,0,14.602-24.356-7.967-46.034l-64.422-63.686l63.286-110.887h132.68
			c12.574,0,22.701-10.126,22.701-22.672c0-12.565-10.127-22.826-22.701-22.826H95.108c-12.728,0-22.788,10.27-22.788,22.692
			c0,12.565,10.06,22.806,22.788,22.806l114.913-0.105l-43.337,76.519c0,0-19.966,30.619,5.116,60.406L68.582,456.39
			C66.526,460.263,65.378,464.623,65.378,469.309z M205.096,522.18c-4.332,0-7.851-3.52-7.851-7.851
			c0-4.332,3.519-7.852,7.851-7.852c4.332,0,7.851,3.52,7.851,7.852C212.938,518.66,209.428,522.18,205.096,522.18z
			 M372.267,506.478c4.332,0,7.852,3.52,7.852,7.852c0,4.331-3.52,7.851-7.852,7.851c-4.33,0-7.85-3.52-7.85-7.851
			C364.417,509.997,367.927,506.478,372.267,506.478z"/>
	</g>
</g>
<g>
</g>
<g>
</g>
<g>
</g>
<g>
</g>
<g>
</g>
<g>
</g>
<g>
</g>
<g>
</g>
<g>
</g>
<g>
</g>
<g>
</g>
<g>
</g>
<g>
</g>
<g>
</g>
<g>
</g>
</svg>
